<svg xmlns="http://www.w3.org/2000/svg" viewBox="0 0 1080 1080" width="1080" height="1080" preserveAspectRatio="xMidYMid meet" style="width: 100%; height: 100%; transform: translate3d(0px, 0px, 0px); content-visibility: visible;"><defs><clipPath id="__lottie_element_349"><rect width="1080" height="1080" x="0" y="0"></rect></clipPath></defs><g clip-path="url(#__lottie_element_349)"><g transform="matrix(1,0,0,1,540,540)" opacity="1" style="display: block;"><g opacity="1" transform="matrix(1,0,0,1,26.007999420166016,29.93000030517578)"><path stroke-linecap="round" stroke-linejoin="round" fill-opacity="0" stroke="rgb(6,194,129)" stroke-opacity="1" stroke-width="65" d=" M-346.364013671875,-79.93499755859375 C-310.0559997558594,-237.6479949951172 -168.66700744628906,-355.406005859375 0,-355.406005859375 C0,-355.406005859375 0,-355.406005859375 0,-355.406005859375 C196.14857482910156,-355.406005859375 355.406005859375,-196.14857482910156 355.406005859375,0 C355.406005859375,196.14857482910156 196.14857482910156,355.406005859375 0,355.406005859375 C-196.14857482910156,355.406005859375 -355.406005859375,196.14857482910156 -355.406005859375,0 C-355.406005859375,-27.481000900268555 -352.2799987792969,-54.23899841308594 -346.364013671875,-79.93499755859375"></path></g></g><g transform="matrix(1,0,0,1,540,540)" opacity="1" style="display: block;"><g opacity="1" transform="matrix(1,0,0,1,0,0)"><path stroke-linecap="round" stroke-linejoin="round" fill-opacity="0" stroke="rgb(6,194,129)" stroke-opacity="1" stroke-width="65" d=" M-138.71499633789062,63.65700149536133 C-90.30500030517578,111.86599731445312 -49,153 -49,153 C-49,153 197,-94 197,-94"></path></g></g></g></svg>